<svg xmlns="http://www.w3.org/2000/svg" width="543" height="543" fill="none" viewBox="0 0 543 543"><path fill="#e82314" d="M543 543h-94c-25.167-20-75.9-78.4-75.5-150 .5-89.5 51-54.596 102.5-53.5 20 .426 27.5-2 27.5-2 16.5-34.5-14-99-45-120.5C390.5 23 150 52.5 0 266.5V0h543z"/><path fill="#fff" d="M0 266.5C150 52.5 390.5 23 458.5 217c31 21.5 61.5 86 45 120.5-.009.003-7.513 2.425-27.5 2-51.5-1.096-102-36-102.5 53.5-.4 71.6 50.333 130 75.5 150H0v-.001h394C356.5 485 355 440.501 352 411c-.051.102-10.51 21.041-14.5 37.5 0-20.499.882-45.629 8.5-73.501 7.927-28.999 19-56.68 38-57.999 36-2.5 61.5 4.001 102 3.001 4.5-60.5-71.5-133.001-119.5-106.501-4 .5-11 0-13.5-1.5 13.5-16.5 39-30.5 79-9C332 5.5 149.5 147.001 71.5 253.501c0 0 19.5-10.501 41.5-17.001-.144.139-67.05 64.6-113 157.499zm305-22c33 1 146 45 170.5 67.5-64.5-25.5-89-30.5-147-54-10.056-4.075-14.278-7.783-23.5-13.5M265.5 171c19-1 36.5 9 41 25.5-3 15-12.425 22.321-26 22.5-14.382.19-26.762-10.136-27.5-24.5-.533-10.381 3.738-17.908 12.5-23.5"/><path fill="#242323" d="M71.5 253.501C149.5 147 332 5.5 432 203c-40-21.5-65.5-7.5-79 9 2.5 1.5 9.5 2 13.5 1.5 48-26.5 124 46 119.5 106.501-40.5.999-66-5.501-102-3.001-19 1.319-30.073 29-38 57.999-7.618 27.872-8.5 53.002-8.5 73.501 4-16.499 14.5-37.5 14.5-37.5 3 29.5 4.5 74 42 131.999H0v-149c46-93 113-157.499 113-157.499-22 6.5-41.5 17.001-41.5 17.001M305 244.5c9.223 5.716 13.444 9.425 23.5 13.5 58 23.5 82.5 28.5 147 54C451 289.499 338 245.499 305 244.5m1.5-48c-4.5-16.5-22-26.5-41-25.5-8.763 5.591-13.033 13.119-12.5 23.5.737 14.364 13.118 24.689 27.5 24.5 13.575-.18 23-7.5 26-22.5"/><circle cx="286" cy="187" r="16" fill="#242424"/></svg>